<?xml version="1.0" encoding="UTF-8"?>
<svg xmlns="http://www.w3.org/2000/svg" viewBox="0 0 1440 900" preserveAspectRatio="xMidYMid slice" aria-hidden="true">
  <defs>
    <linearGradient id="tools-app-art-glow-a" x1="0%" y1="0%" x2="100%" y2="100%">
      <stop offset="0%" class="tools-app-art__glow-start" />
      <stop offset="100%" class="tools-app-art__glow-end" />
    </linearGradient>
    <linearGradient id="tools-app-art-glow-b" x1="100%" y1="0%" x2="0%" y2="100%">
      <stop offset="0%" class="tools-app-art__glow-accent" />
      <stop offset="100%" class="tools-app-art__glow-end" />
    </linearGradient>
  </defs>

  <rect width="1440" height="900" fill="url(#tools-app-art-glow-a)" opacity="0.55" />
  <rect width="1440" height="900" fill="url(#tools-app-art-glow-b)" opacity="0.35" />

  <g class="tools-app-art__lines">
    <path class="tools-app-art__curve tools-app-art__curve--accent" d="M-60 120 C 280 40, 520 180, 860 95 S 1380 30, 1500 140" />
    <path class="tools-app-art__curve tools-app-art__curve--accent" d="M120 260 C 420 180, 700 340, 1040 250 S 1460 190, 1540 310" />
    <path class="tools-app-art__curve tools-app-art__curve--primary" d="M-80 520 C 240 460, 480 620, 820 540 S 1320 470, 1520 580" />
    <path class="tools-app-art__curve tools-app-art__curve--primary" d="M40 720 C 360 660, 620 780, 980 700 S 1400 640, 1500 760" />
    <path class="tools-app-art__curve tools-app-art__curve--muted" d="M900 -20 C 1020 120, 1080 240, 1180 420 S 1320 700, 1280 920" />
    <path class="tools-app-art__curve tools-app-art__curve--muted" d="M-40 380 C 120 320, 200 420, 340 360 S 560 280, 680 400" />
  </g>

  <g class="tools-app-art__mesh">
    <path class="tools-app-art__mesh-line" d="M0 180 L1440 40" />
    <path class="tools-app-art__mesh-line" d="M0 420 L1440 280" />
    <path class="tools-app-art__mesh-line" d="M0 660 L1440 520" />
    <path class="tools-app-art__mesh-line" d="M180 0 L40 900" />
    <path class="tools-app-art__mesh-line" d="M520 0 L380 900" />
    <path class="tools-app-art__mesh-line" d="M920 0 L780 900" />
    <path class="tools-app-art__mesh-line" d="M1320 0 L1180 900" />
  </g>

  <g class="tools-app-art__nodes">
    <circle class="tools-app-art__node tools-app-art__node--accent" cx="860" cy="95" r="3.5" />
    <circle class="tools-app-art__node tools-app-art__node--primary" cx="820" cy="540" r="3" />
    <circle class="tools-app-art__node tools-app-art__node--accent" cx="1040" cy="250" r="2.5" />
    <circle class="tools-app-art__node tools-app-art__node--primary" cx="340" cy="360" r="2.5" />
    <circle class="tools-app-art__node tools-app-art__node--muted" cx="1180" cy="420" r="2" />
    <circle class="tools-app-art__node tools-app-art__node--muted" cx="680" cy="400" r="2" />
  </g>
</svg>
